HIERARCHY
ROOT Hips
{
  OFFSET -33.9132 29.2015 117.021
  CHANNELS 6 Xposition Yposition Zposition Zrotation Xrotation Yrotation
  JOINT LeftUpLeg
  {
    OFFSET 8.64259 1.95398 -2.38835
    CHANNELS 3 Zrotation Xrotation Yrotation
    JOINT LeftLeg
    {
      OFFSET 43.7702 0 0
      CHANNELS 3 Zrotation Xrotation Yrotation
      JOINT LeftFoot
      {
        OFFSET 40.6238 0 0
        CHANNELS 3 Zrotation Xrotation Yrotation
        JOINT LeftToeBase
        {
          OFFSET 12.7242 0 0
          CHANNELS 3 Zrotation Xrotation Yrotation
          End Site
          {
            OFFSET 0 0 0
          }
        }
      }
    }
  }
  JOINT RightUpLeg
  {
    OFFSET -8.2249 1.95398 -2.59336
    CHANNELS 3 Zrotation Xrotation Yrotation
    JOINT RightLeg
    {
      OFFSET 43.5653 0 0
      CHANNELS 3 Zrotation Xrotation Yrotation
      JOINT RightFoot
      {
        OFFSET 40.6238 0 0
        CHANNELS 3 Zrotation Xrotation Yrotation
        JOINT RightToeBase
        {
          OFFSET 12.7242 0 0
          CHANNELS 3 Zrotation Xrotation Yrotation
          End Site
          {
            OFFSET 0 0 0
          }
        }
      }
    }
  }
  JOINT Spine
  {
    OFFSET 0.165834 0.87714 6.61349
    CHANNELS 3 Zrotation Xrotation Yrotation
    JOINT Spine1
    {
      OFFSET 7.38963 1.71661e-005 0
      CHANNELS 3 Zrotation Xrotation Yrotation
      JOINT Spine2
      {
        OFFSET 11.9445 1.14441e-005 0
        CHANNELS 3 Zrotation Xrotation Yrotation
        JOINT Spine3
        {
          OFFSET 14.7254 4.19617e-005 0
          CHANNELS 3 Zrotation Xrotation Yrotation
          JOINT Spine4
          {
            OFFSET 10.9679 0 0
            CHANNELS 3 Zrotation Xrotation Yrotation
            JOINT RightShoulder
            {
              OFFSET 2.46616 -1.6653 3.69651
              CHANNELS 3 Zrotation Xrotation Yrotation
              JOINT RightArm
              {
                OFFSET 13.0012 0 0
                CHANNELS 3 Zrotation Xrotation Yrotation
                JOINT RightForeArm
                {
                  OFFSET 28.7848 1.62311e-005 0
                  CHANNELS 3 Zrotation Xrotation Yrotation
                  JOINT RightHand
                  {
                    OFFSET 26.5688 1.62095e-005 0
                    CHANNELS 3 Zrotation Xrotation Yrotation
                    End Site
                    {
                      OFFSET 0 0 0
                    }
                  }
                }
              }
            }
            JOINT LeftShoulder
            {
              OFFSET 2.38034 -1.29275 -3.7523
              CHANNELS 3 Zrotation Xrotation Yrotation
              JOINT LeftArm
              {
                OFFSET 16.3182 6.07031e-005 0
                CHANNELS 3 Zrotation Xrotation Yrotation
                JOINT LeftForeArm
                {
                  OFFSET 27.0901 0 0
                  CHANNELS 3 Zrotation Xrotation Yrotation
                  JOINT LeftHand
                  {
                    OFFSET 24.5451 1.51738e-005 0
                    CHANNELS 3 Zrotation Xrotation Yrotation
                    End Site
                    {
                      OFFSET 0 0 0
                    }
                  }
                }
              }
            }
            JOINT Neck
            {
              OFFSET 5.0226 -0.0266342 0
              CHANNELS 3 Zrotation Xrotation Yrotation
              JOINT Head
              {
                OFFSET 6.69364 2.86102e-005 0
                CHANNELS 3 Zrotation Xrotation Yrotation
                End Site
                {
                  OFFSET 0 0 0
                }
              }
            }
          }
        }
      }
    }
  }
}
MOTION
Frames:	12
Frame Time:	0.0416667
-216.499 95.9786 186.173 -101.763 -44.6787 -102.042 -175.184 3.91284 84.3213 -28.0753 9.1174 -1.74585 76.7386 9.7929 -1.89435 11.1278 -14.5333 8.87195 172.562 15.6345 85.4072 -55.6115 -12.267 -2.09357 66.3634 -4.69802 -1.7428 27.5118 0.165076 1.61102 0.934821 8.46374 -89.9066 9.94713 1.90559 0.0298339 -1.72242 1.90506 -0.0541005 -24.268 1.8085 0.601351 -4.25532 1.80849 0.601349 95.7087 -23.9245 -96.7069 52.0791 3.74351 -5.48848 -5.70916 -47.4932 -5.70867 -15.9772 1.61639 -17.2375 -87.3347 -49.474 82.6332 -17.6164 -9.83981 5.76635 -11.6714 20.3989 -0.0270107 5.2167 -0.98256 -19.6169 -5.22675 -2.56446 -3.54495 0.0472504 -2.34478 -5.2727 
-213.661 95.527 182.089 -101.665 -46.3103 -102.852 -175.102 8.45408 84.0545 -29.2838 12.3994 -2.33502 73.9465 8.93304 0.472029 9.64284 -14.9199 8.0401 172.519 5.57202 83.6702 -59.2015 -18.1334 -3.98787 65.6809 -4.09444 -0.988429 25.9064 0.7891 1.9019 1.19033 8.24855 -89.6038 10.3723 2.55284 0.563963 -1.29621 2.57519 0.450994 -23.8472 2.26527 1.30546 -3.8345 2.26527 1.30546 91.3019 -25.4366 -105.881 48.4168 5.69599 -4.28733 -5.30624 -42.1036 -5.45413 -20.0139 2.5769 -20.2881 -87.1193 -50.2153 83.0836 -18.2494 -12.9386 12.156 -10.1658 14.2438 -1.18758 5.92305 -0.955946 -17.06 -5.75255 -4.20437 -4.15275 0.542645 -4.00406 -6.81164 
-210.22 94.6844 176.86 -100.114 -47.8266 -102.025 -175.409 15.4306 83.9123 -31.2227 13.1383 -2.20864 69.8238 6.31486 0.637835 9.69281 -14.4386 7.40622 173.04 -4.25029 84.311 -48.5787 -22.7907 -5.51026 68.6298 -6.55388 -3.04936 30.6682 -1.88917 4.813 1.35522 8.0543 -89.3436 10.7527 3.00138 1.02853 -0.915133 3.04374 0.895334 -23.4684 2.55348 1.88342 -3.45577 2.55349 1.88342 91.2581 -24.8065 -106.209 48.7559 4.29073 -8.40236 -5.20802 -40.6353 -5.39685 -21.6047 3.21485 -22.4404 -86.033 -50.2602 84.7179 -20.1009 -12.4546 13.283 -10.1597 14.0204 -1.80878 3.09679 -0.866164 -22.2245 -4.65842 -5.30766 -4.96576 0.39683 -4.99751 -8.00037 
-205.346 94.0744 169.48 -96.9345 -47.6657 -99.0106 -176.232 22.1322 85.0945 -27.5441 13.6026 -1.8221 62.1855 1.1065 -0.056561 8.37317 -15.1572 7.22052 174.173 -8.38074 87.035 -33.412 -20.1854 -5.49635 76.3883 -12.9285 -4.89252 37.7379 -4.54804 3.33615 1.7524 7.95682 -89.3463 10.9459 3.79142 0.942397 -0.719702 3.82922 0.774377 -23.2881 3.33278 2.03934 -3.27548 3.33276 2.03934 91.1073 -23.3901 -107.14 48.1428 3.50866 -11.8269 -5.16081 -39.9091 -5.37041 -23.7958 4.01692 -24.6168 -86.2787 -53.8685 84.881 -16.9491 -14.194 9.76547 -9.02998 19.1947 -1.86783 3.15774 -1.02968 -25.1703 -3.46341 -6.36077 -2.70318 1.62102 -6.40708 -10.5068 
-200.192 94.4766 161.811 -96.26 -50.4338 -95.8326 -176.838 23.4066 87.4016 -19.4008 10.2435 -1.33155 64.2398 2.95621 0.526078 6.00551 -16.5509 7.0128 174.422 -5.20012 90.2339 -28.3117 -18.8512 -2.62655 79.8467 -14.791 -3.38615 32.5695 -2.13175 1.97974 1.49487 8.12493 -89.7628 10.6243 3.08638 0.191998 -1.04296 3.09182 0.0558349 -23.6046 2.88587 1.11148 -3.59196 2.88588 1.11147 90.9847 -22.3991 -107.849 46.1927 3.5315 -15.0492 -5.40073 -43.4548 -5.51053 -22.5348 4.13214 -26.3364 -86.5315 -56.5062 84.8879 -13.7087 -13.7877 4.05309 -9.73728 21.2829 -0.534119 5.25201 -1.17257 -21.6775 -0.0708333 -6.11271 0.133317 1.23108 -6.41603 -10.4638 
-196.969 96.1951 155.488 -97.6752 -55.0766 -97.5352 -175.653 22.0652 86.7538 -21.0869 -1.37883 -1.87627 64.7579 3.46503 -0.73013 14.0226 -14.4117 11.5596 175.258 -1.77206 91.9494 -26.4279 -14.8087 -1.83909 76.3274 -11.426 -3.23429 27.9416 -0.384872 3.04812 0.88051 8.1665 -89.8204 10.5399 1.83637 0.192695 -1.12971 1.84306 0.111652 -23.674 1.69351 0.735838 -3.66137 1.69352 0.735844 91.5139 -23.4704 -106.207 46.8666 3.74888 -13.1793 -5.24102 -41.1351 -5.41567 -22.5894 3.69133 -24.0894 -88.2797 -53.5815 81.9412 -14.9176 -13.441 -0.974592 -10.427 21.9281 0.0149032 5.67112 -0.966138 -18.98 -0.788043 -5.42422 -1.08556 0.985734 -5.48311 -8.0835 
-194.551 97.1511 150.556 -99.0193 -57.7353 -99.3501 -174.776 21.3475 88.2168 -37.0423 7.67375 -0.736863 68.3926 5.90987 -0.211336 9.77939 -14.051 6.91068 174.975 0.36007 91.8943 -24.4109 -13.5558 -1.02235 73.4815 -8.49309 -1.83323 26.1668 0.601991 2.1983 0.449978 8.09142 -89.8021 10.6906 0.987361 0.302445 -0.979972 0.999691 0.258695 -23.5174 0.850796 0.585218 -3.50479 0.850793 0.585219 92.2615 -25.0112 -103.964 48.9708 4.40562 -7.70518 -5.16585 -39.99 -5.37317 -24.0397 3.8017 -23.4121 -87.8896 -48.8855 81.6931 -18.1773 -12.7542 -6.44601 -10.4782 24.9202 -0.0262909 5.75839 -0.627512 -15.6529 -0.4236 -4.87443 -3.46314 0.100187 -4.45316 -4.19201 
-191.963 97.2558 146.498 -99.3384 -58.4447 -99.0859 -175.343 17.3372 91.4021 -51.4895 13.2045 2.05635 71.2927 7.57693 -0.528553 11.9686 -13.609 8.31966 175.098 4.10593 92.4771 -25.3662 -13.2943 -0.423731 71.738 -7.36034 -1.81434 25.1974 0.947447 2.49666 0.00470477 7.93687 -89.9904 10.999 0.0139518 0.0189038 -0.671966 0.0147578 0.0182703 -23.207 0.00761896 0.0222204 -3.19432 0.00761874 0.0222228 92.7592 -25.4217 -102.737 50.9159 5.3807 -2.02233 -5.35477 -42.8016 -5.48231 -21.551 3.05483 -21.67 -87.6429 -47.7722 81.8601 -19.4132 -9.66764 -8.83078 -11.4763 24.1407 -0.0330952 8.64767 -1.35283 -18.4989 -0.319283 -3.28863 -3.4134 -0.328606 -2.8161 -1.50242 
-189.159 97.0234 143.177 -102.054 -58.8213 -99.4997 -175.891 8.51849 96.0205 -56.9956 19.9257 4.91363 70.0445 6.99616 -0.185398 13.3067 -11.9987 7.15832 175.392 6.03831 93.6602 -26.0435 -12.9956 0.298105 69.9244 -6.12167 -1.97337 25.1962 1.02106 2.2378 -0.457835 7.89676 -90.3496 11.0775 -1.07346 -0.592017 -0.593133 -1.09847 -0.544202 -23.1296 -0.8459 -0.887267 -3.11697 -0.845913 -0.887267 92.7542 -26.1622 -102.493 52.2727 6.74563 3.77311 -5.13874 -39.5648 -5.3579 -18.6073 2.10767 -18.5198 -87.5091 -47.098 81.9438 -22.4386 -8.67852 -11.515 -11.3902 24.5029 -0.0205668 9.81869 -1.92833 -21.6795 -1.70452 -1.46212 -2.0319 -0.422233 -1.19081 0.165817 
-185.483 96.4077 139.982 -103.219 -59.1988 -99.1745 -174.743 0.0545564 98.8284 -54.0374 30.0338 6.5909 66.8967 4.86775 -0.928481 13.3956 -11.0161 5.73244 175.883 9.66284 94.2722 -27.9525 -12.0785 0.345406 68.1273 -4.68064 -1.52799 24.6765 1.14832 2.59584 -0.776447 7.88238 -90.6314 11.1014 -1.83862 -1.0787 -0.568585 -1.88428 -0.996722 -23.1072 -1.42945 -1.58142 -3.09457 -1.42945 -1.58142 92.7785 -27.2125 -102.087 51.8847 8.05983 7.54563 -4.89834 -35.5989 -5.23281 -13.8364 1.40121 -17.4716 -87.0669 -46.1313 82.46 -26.2571 -7.97147 -16.3509 -10.7464 29.1858 -0.0175584 9.02433 -2.01267 -23.7792 -2.13624 -0.16924 -0.795695 -1.27724 -0.0524933 1.48857 
-180.248 95.6834 135.956 -103.167 -60.105 -98.8157 -172.891 -5.40835 99.2634 -45.0136 35.7864 6.06021 69.5876 7.03093 -0.159417 23.1324 -6.14121 6.91193 175.953 14.4304 93.2136 -28.4992 -12.2221 0.183616 64.8628 -2.26864 -1.32266 23.4557 1.46123 3.32516 -1.03323 7.93294 -90.8866 10.9893 -2.46754 -1.52859 -0.680064 -2.53241 -1.41848 -23.2202 -1.89416 -2.19951 -3.20751 -1.89415 -2.19952 93.4761 -26.7302 -100.775 51.1897 8.17559 7.25525 -4.99956 -37.3161 -5.28369 -11.8926 1.41105 -19.5715 -87.8783 -46.9692 81.3442 -27.9124 -7.16869 -21.2982 -10.6328 31.8431 -0.0170478 11.1481 -2.67289 -25.5808 -1.8245 0.575831 1.02201 -1.69008 0.464133 2.09766 
-173.262 94.6721 130.399 -100.394 -62.3522 -97.1256 -173.628 -5.56587 96.9158 -35.8996 32.3475 4.61074 80.8268 14.5995 -1.7727 30.3813 -4.43993 12.2621 176.195 20.3573 90.5783 -25.4976 -12.3499 -0.36426 59.2151 2.06764 0.127418 23.178 1.61668 3.22134 -1.25996 7.96664 -90.8639 10.9206 -2.90811 -1.44409 -0.747788 -2.96885 -1.31463 -23.2949 -2.3397 -2.2515 -3.28222 -2.33974 -2.25151 93.3232 -28.3347 -100.602 48.8523 7.79651 3.44683 -4.85432 -34.8294 -5.21154 -12.166 2.04652 -25.0351 -87.7355 -44.079 81.0056 -31.4093 -6.60512 -26.1173 -10.0092 37.5091 -0.0185114 11.3329 -2.76503 -26.5092 -1.18004 0.467018 -1.30404 -1.69432 0.665406 3.41586 
